<?xml version="1.0" standalone="no"?>
<!DOCTYPE svg PUBLIC "-//W3C//DTD SVG 20010904//EN"
 "http://www.w3.org/TR/2001/REC-SVG-20010904/DTD/svg10.dtd">
<svg version="1.0" xmlns="http://www.w3.org/2000/svg"
 width="1152.000000pt" height="648.000000pt" viewBox="0 0 1152.000000 648.000000"
 preserveAspectRatio="xMidYMid meet">

<g transform="translate(0.000000,648.000000) scale(0.100000,-0.100000)"
fill="#000000" stroke="none">
<path d="M1613 6392 c-18 -12 -3 -73 20 -81 23 -9 134 -15 127 -7 -26 25 -139
93 -147 88z"/>
<path d="M1091 2173 c-27 -56 -58 -91 -175 -205 -106 -102 -150 -152 -171
-194 -28 -55 -28 -59 -17 -123 6 -36 23 -94 37 -128 30 -75 32 -121 5 -173
-29 -56 -68 -83 -228 -154 -148 -66 -219 -115 -288 -198 -50 -58 -64 -96 -64
-168 0 -73 16 -114 61 -157 43 -40 77 -53 144 -53 77 0 154 27 195 70 152 156
341 482 424 730 85 256 116 423 116 628 0 68 4 111 9 107 11 -6 3 65 -8 77 -4
4 -22 -22 -40 -59z m-94 -600 c-4 -3 0 -14 8 -23 13 -14 13 -17 0 -17 -8 0
-12 4 -9 8 2 4 0 10 -6 14 -10 6 -5 25 7 25 4 0 3 -3 0 -7z m-697 -723 c0 -5
-5 -10 -11 -10 -5 0 -7 5 -4 10 3 6 8 10 11 10 2 0 4 -4 4 -10z"/>
<path d="M1145 2002 c-1 -2 -1 -12 2 -23 4 -15 8 -17 19 -8 19 16 29 -13 14
-40 -6 -12 -8 -27 -4 -34 5 -8 2 -7 -9 2 -15 12 -17 10 -17 -21 0 -19 5 -39
12 -46 14 -14 42 -16 33 -3 -3 5 -1 12 5 16 5 3 10 -1 10 -9 0 -8 -4 -18 -10
-21 -16 -10 -12 -28 5 -22 8 4 17 1 21 -5 5 -7 2 -8 -7 -3 -12 7 -12 6 0 -6
11 -12 15 -12 24 3 10 15 12 15 24 0 13 -15 13 -14 8 8 -4 14 -23 68 -43 121
-32 86 -38 97 -60 95 -13 0 -25 -2 -27 -4z"/>
<path d="M1136 1795 c4 -8 8 -15 10 -15 2 0 4 7 4 15 0 8 -4 15 -10 15 -5 0
-7 -7 -4 -15z"/>
<path d="M1314 1566 c-9 -20 -9 -23 2 -19 8 3 14 14 14 24 0 25 -3 24 -16 -5z"/>
<path d="M1314 1516 c-4 -10 0 -24 9 -33 14 -14 15 -13 13 11 -4 34 -14 44
-22 22z"/>
<path d="M2060 1264 c-54 -30 -71 -50 -112 -129 -46 -91 -83 -140 -130 -174
-49 -36 -58 -38 -58 -11 0 34 36 95 95 161 43 48 53 65 44 75 -20 24 -81 16
-159 -22 -91 -43 -151 -51 -270 -34 -81 12 -94 11 -137 -5 -63 -24 -111 -56
-117 -77 -5 -22 -26 -24 -26 -2 0 8 -4 13 -9 10 -5 -3 -11 3 -14 14 -3 11 -11
20 -19 19 -10 0 -10 -2 0 -6 6 -2 12 -9 12 -14 0 -6 -4 -8 -9 -5 -5 4 -22 1
-37 -4 -23 -9 -25 -9 -15 4 8 10 9 16 1 21 -5 3 -14 -5 -19 -18 -6 -14 -16
-29 -23 -33 -11 -6 -11 -5 0 8 11 14 10 16 -7 11 -12 -3 -19 -9 -16 -13 2 -4
-11 -6 -30 -5 -21 2 -33 -2 -32 -9 1 -6 -4 -10 -10 -9 -7 2 -13 -2 -13 -7 0
-6 7 -10 15 -10 23 0 18 -8 -34 -56 -27 -25 -52 -55 -55 -68 -3 -13 -13 -26
-21 -30 -9 -3 -13 -2 -10 4 3 6 -1 10 -9 10 -8 0 -18 -5 -21 -10 -4 -6 -11 -8
-16 -4 -5 3 -7 10 -3 15 3 5 11 6 17 2 7 -4 7 -1 -1 9 -12 15 -16 14 -43 -9
-16 -15 -29 -30 -29 -34 0 -5 -13 -27 -29 -51 -23 -33 -27 -47 -20 -66 12 -31
12 -31 -10 -29 -10 0 -17 6 -14 12 2 7 -3 12 -12 12 -8 0 -15 -6 -15 -13 0 -6
-7 -14 -15 -18 -20 -7 -19 -21 6 -70 15 -30 27 -41 44 -42 16 -1 22 2 18 10
-4 6 1 5 10 -2 13 -11 14 -17 4 -33 -6 -10 -16 -19 -21 -19 -4 0 -3 7 4 15 10
12 10 15 -4 15 -62 0 75 -159 157 -181 48 -13 110 7 147 46 33 35 47 31 53
-17 9 -64 89 -216 142 -270 78 -78 154 -94 284 -58 91 26 116 38 214 109 l78
56 -65 7 c-136 14 -184 38 -60 30 76 -5 170 10 231 35 18 7 36 14 40 14 12 1
3 23 -13 32 -12 7 -13 12 -3 23 9 12 5 14 -27 15 -22 0 -48 4 -59 9 -12 4 7 6
44 2 54 -4 63 -3 59 10 -5 11 0 14 18 10 14 -2 24 0 24 7 0 7 5 9 10 6 6 -3
10 -1 10 4 0 6 11 11 25 11 14 0 25 4 25 9 0 5 14 14 31 20 25 9 29 14 20 24
-6 8 -8 17 -4 20 9 9 43 9 44 0 0 -5 2 -19 5 -32 4 -20 1 -23 -16 -18 -17 4
-19 3 -10 -9 10 -11 16 -11 40 1 16 8 32 19 35 25 4 6 11 8 16 5 5 -4 9 -4 9
-1 0 4 -18 13 -40 22 -22 9 -40 20 -40 24 0 4 -12 6 -27 3 -23 -3 -24 -2 -9 5
20 9 20 9 0 14 -10 2 -36 4 -56 4 -36 -2 -55 14 -43 34 6 10 131 60 150 60 8
0 15 5 15 10 0 6 11 10 24 10 13 0 26 4 28 9 2 6 26 12 54 14 57 5 95 23 139
64 17 15 34 29 39 30 10 3 40 43 58 78 9 17 25 79 37 140 12 60 33 137 47 170
13 34 24 64 24 66 0 2 -33 3 -73 1 -49 -3 -109 3 -177 17 -143 29 -222 28
-280 -5z m260 -148 c0 -16 -18 -31 -27 -22 -8 8 5 36 17 36 5 0 10 -6 10 -14z
m100 -9 c0 -7 -11 -19 -24 -27 -14 -8 -44 -33 -68 -55 -24 -23 -85 -70 -136
-105 -63 -43 -88 -66 -80 -72 18 -11 106 -10 128 2 12 6 21 7 25 1 9 -15 -59
-24 -135 -19 -38 3 -72 2 -77 -2 -4 -5 -59 -34 -121 -65 -68 -34 -109 -61
-105 -68 4 -6 0 -8 -9 -4 -16 6 -60 -7 -141 -42 -26 -11 -50 -20 -52 -20 -3 0
-31 -7 -63 -16 l-57 -17 50 -46 c58 -52 133 -102 190 -125 22 -9 34 -16 26
-16 -34 -2 -165 74 -224 129 -44 41 -67 56 -77 50 -16 -8 -195 -39 -275 -47
-27 -3 -52 -7 -54 -9 -3 -2 1 -34 8 -70 6 -37 10 -68 8 -71 -4 -3 -17 46 -32
122 -4 19 -13 20 -132 22 -168 2 -252 7 -247 14 2 4 -5 9 -16 12 -12 3 -20 14
-20 27 0 19 4 21 27 16 16 -4 48 -9 73 -13 25 -3 48 -10 52 -16 8 -12 258 -23
258 -11 0 5 -11 32 -25 59 -13 28 -24 57 -24 65 0 8 15 -18 34 -58 l34 -73 53
6 c29 4 92 13 141 21 48 8 89 14 91 14 9 0 25 127 20 155 -4 20 -2 26 4 17 6
-9 14 2 26 40 9 29 24 64 32 78 16 27 16 25 -16 -66 -23 -67 -43 -195 -32
-206 19 -19 404 125 531 199 62 37 64 40 90 113 15 41 33 84 40 95 l13 20 -7
-20 c-4 -11 -16 -44 -27 -74 -30 -84 -23 -87 67 -28 80 53 237 175 243 189 5
12 12 9 12 -5z m-196 -68 c-17 -18 -44 -26 -44 -12 0 4 12 20 28 36 22 23 28
25 30 12 2 -9 -4 -25 -14 -36z m-1040 -103 c-3 -15 -8 -25 -11 -23 -2 3 -1 17
3 31 3 15 8 25 11 23 2 -3 1 -17 -3 -31z m349 -1 c-3 -9 -8 -14 -10 -11 -3 3
-2 9 2 15 9 16 15 13 8 -4z m790 -92 c-7 -2 -21 -2 -30 0 -10 3 -4 5 12 5 17
0 24 -2 18 -5z m-886 -45 c-3 -8 -6 -5 -6 6 -1 11 2 17 5 13 3 -3 4 -12 1 -19z
m267 10 c-31 -55 -94 -80 -94 -38 0 14 11 26 33 35 41 18 71 19 61 3z m556 -8
c-8 -5 -24 -10 -35 -10 -17 0 -17 2 -5 10 8 5 24 10 35 10 17 0 17 -2 5 -10z
m-1400 -30 c0 -5 -5 -10 -11 -10 -5 0 -7 5 -4 10 3 6 8 10 11 10 2 0 4 -4 4
-10z m1381 -3 c11 3 19 0 19 -6 0 -7 -4 -10 -9 -6 -5 3 -12 1 -16 -5 -3 -5 -2
-10 4 -10 6 0 8 -7 4 -16 -4 -11 -9 -12 -16 -5 -8 8 -18 4 -34 -11 -13 -12
-23 -17 -23 -11 0 6 5 13 12 15 6 2 11 18 10 36 -1 27 2 31 15 23 9 -4 24 -6
34 -4z m-1515 -33 c1 -9 0 -13 -4 -10 -3 4 -7 14 -8 22 -1 9 0 13 4 10 3 -4 7
-14 8 -22z m71 -55 c2 -13 -1 -19 -9 -17 -13 5 -18 26 -10 41 6 12 15 0 19
-24z m-106 -36 c13 -15 12 -16 -8 -11 -13 4 -26 2 -29 -3 -3 -5 -10 -7 -15 -3
-12 7 8 34 26 34 7 0 19 -8 26 -17z m1083 2 c-7 -16 -24 -21 -24 -6 0 8 7 13
27 20 1 1 0 -6 -3 -14z m-16 -37 c-7 -20 -48 -23 -48 -4 0 11 9 16 26 16 16 0
24 -5 22 -12z m97 -24 c14 -9 25 -24 25 -34 0 -16 -3 -16 -45 -2 -32 10 -45
20 -45 33 0 24 31 25 65 3z m-94 -44 c28 -9 49 -21 47 -26 -5 -14 -99 -8 -140
9 -22 9 -38 23 -38 32 0 14 7 16 41 10 22 -4 63 -15 90 -25z"/>
<path d="M9409 924 c-6 -7 -20 -11 -31 -9 -11 3 -17 1 -14 -3 4 -4 11 -7 14
-7 4 0 12 -3 18 -7 6 -4 21 3 33 16 17 18 18 23 6 23 -8 0 -20 -6 -26 -13z"/>
<path d="M2266 635 c-27 -13 -58 -26 -69 -29 -20 -5 -20 -6 -3 -25 21 -23 15
-51 -11 -51 -17 -1 -17 -1 -1 -10 10 -6 26 -7 40 -1 29 11 98 97 98 123 0 10
-1 18 -2 17 -2 0 -25 -11 -52 -24z"/>
<path d="M2063 445 c0 -7 6 -11 14 -8 7 3 13 6 13 8 0 2 -6 5 -13 8 -8 3 -14
-1 -14 -8z"/>
<path d="M1996 418 c3 -5 10 -6 15 -3 13 9 11 12 -6 12 -8 0 -12 -4 -9 -9z"/>
<path d="M1964 409 c-3 -6 -2 -15 3 -20 5 -5 9 -1 9 11 0 23 -2 24 -12 9z"/>
<path d="M1920 355 c0 -14 5 -25 10 -25 6 0 10 4 10 8 0 5 10 14 23 21 12 6
15 10 7 8 -8 -3 -23 0 -32 5 -15 7 -18 4 -18 -17z"/>
</g>
</svg>
