<svg xmlns="http://www.w3.org/2000/svg" xmlns:xlink="http://www.w3.org/1999/xlink" width="1080" zoomAndPan="magnify" viewBox="0 0 810 809.999993" height="1080" preserveAspectRatio="xMidYMid meet" version="1.0"><defs><g/><clipPath id="f2b41041bb"><path d="M 497.09375 388.996094 L 519.71875 388.996094 L 519.71875 483.5 L 497.09375 483.5 Z M 497.09375 388.996094 " clip-rule="nonzero"/></clipPath><clipPath id="b3de329395"><path d="M 574.9375 388.996094 L 600.0625 388.996094 L 600.0625 483.5 L 574.9375 483.5 Z M 574.9375 388.996094 " clip-rule="nonzero"/></clipPath><clipPath id="fe5518fd70"><path d="M 536.957031 436.25 L 555.761719 436.25 L 555.761719 483.5 L 536.957031 483.5 Z M 536.957031 436.25 " clip-rule="nonzero"/></clipPath><clipPath id="dfc7131d32"><path d="M 497.09375 283.707031 L 606.445312 283.707031 L 606.445312 379.25 L 497.09375 379.25 Z M 497.09375 283.707031 " clip-rule="nonzero"/></clipPath><clipPath id="e45fdc65bf"><path d="M 551.691406 283.707031 L 606.285156 379.25 L 497.09375 379.25 Z M 551.691406 283.707031 " clip-rule="nonzero"/></clipPath></defs><rect x="-81" width="972" fill="#ffffff" y="-80.999999" height="971.999992" fill-opacity="1"/><rect x="-81" width="972" fill="#ffffff" y="-80.999999" height="971.999992" fill-opacity="1"/><g clip-path="url(#f2b41041bb)"><path fill="#000000" d="M 497.09375 388.996094 L 519.71875 388.996094 L 519.71875 483.472656 L 497.09375 483.472656 Z M 497.09375 388.996094 " fill-opacity="1" fill-rule="nonzero"/></g><g clip-path="url(#b3de329395)"><path fill="#000000" d="M 574.9375 388.996094 L 600.0625 388.996094 L 600.0625 483.515625 L 574.9375 483.515625 Z M 574.9375 388.996094 " fill-opacity="1" fill-rule="nonzero"/></g><g clip-path="url(#fe5518fd70)"><path fill="#004aad" d="M 536.957031 436.25 L 555.761719 436.25 L 555.761719 483.480469 L 536.957031 483.480469 Z M 536.957031 436.25 " fill-opacity="1" fill-rule="nonzero"/></g><g clip-path="url(#dfc7131d32)"><g clip-path="url(#e45fdc65bf)"><path fill="#000000" d="M 497.09375 283.707031 L 606.445312 283.707031 L 606.445312 379.25 L 497.09375 379.25 Z M 497.09375 283.707031 " fill-opacity="1" fill-rule="nonzero"/></g></g><g fill="#004aad" fill-opacity="1"><g transform="translate(132.403151, 435.027441)"><g><path d="M 7.75 -65.390625 C 7.75 -69.378906 7.453125 -72.398438 6.859375 -74.453125 C 6.273438 -76.515625 5.570312 -78.046875 4.75 -79.046875 C 3.9375 -80.046875 3.234375 -80.894531 2.640625 -81.59375 C 2.054688 -82.300781 1.765625 -83.300781 1.765625 -84.59375 C 1.765625 -86.46875 2.289062 -87.695312 3.34375 -88.28125 C 4.40625 -88.875 5.695312 -89.171875 7.21875 -89.171875 C 8.988281 -89.171875 10.898438 -88.992188 12.953125 -88.640625 C 15.003906 -88.296875 16.914062 -88.125 18.6875 -88.125 C 20.09375 -88.125 21.441406 -88.125 22.734375 -88.125 C 24.023438 -88.125 25.257812 -88.125 26.4375 -88.125 C 34.070312 -88.125 40.648438 -88.328125 46.171875 -88.734375 C 51.691406 -89.140625 56.273438 -89.285156 59.921875 -89.171875 C 63.796875 -89.054688 66.644531 -88.703125 68.46875 -88.109375 C 70.289062 -87.523438 71.90625 -85.53125 73.3125 -82.125 C 75.070312 -77.894531 76.628906 -73.988281 77.984375 -70.40625 C 79.335938 -66.820312 79.984375 -63.910156 79.921875 -61.671875 C 79.859375 -59.441406 78.535156 -58.328125 75.953125 -58.328125 C 74.429688 -58.328125 73.082031 -58.972656 71.90625 -60.265625 C 70.726562 -61.554688 69.40625 -63.140625 67.9375 -65.015625 C 66.46875 -66.898438 64.644531 -68.84375 62.46875 -70.84375 C 60.300781 -72.84375 57.453125 -74.578125 53.921875 -76.046875 C 50.398438 -77.515625 45.9375 -78.425781 40.53125 -78.78125 C 39.238281 -78.894531 38.179688 -78.539062 37.359375 -77.71875 C 36.535156 -76.894531 36.125 -75.835938 36.125 -74.546875 L 36.125 -53.21875 C 36.125 -50.164062 37.59375 -48.816406 40.53125 -49.171875 C 44.53125 -49.753906 47.5 -50.601562 49.4375 -51.71875 C 51.375 -52.84375 52.78125 -54.019531 53.65625 -55.25 C 54.539062 -56.476562 55.394531 -57.535156 56.21875 -58.421875 C 57.039062 -59.304688 58.273438 -59.75 59.921875 -59.75 C 62.390625 -59.75 63.859375 -58.925781 64.328125 -57.28125 C 64.796875 -55.632812 64.882812 -53.691406 64.59375 -51.453125 C 64.300781 -49.222656 64.15625 -47.226562 64.15625 -45.46875 C 64.15625 -43.707031 64.300781 -41.707031 64.59375 -39.46875 C 64.882812 -37.238281 64.796875 -35.300781 64.328125 -33.65625 C 63.859375 -32.007812 62.390625 -31.1875 59.921875 -31.1875 C 58.273438 -31.1875 57.039062 -31.597656 56.21875 -32.421875 C 55.394531 -33.242188 54.539062 -34.269531 53.65625 -35.5 C 52.78125 -36.738281 51.375 -37.914062 49.4375 -39.03125 C 47.5 -40.144531 44.53125 -40.941406 40.53125 -41.421875 C 37.59375 -41.765625 36.125 -40.410156 36.125 -37.359375 L 36.125 -22.734375 C 36.125 -18.617188 36.414062 -15.503906 37 -13.390625 C 37.59375 -11.273438 38.269531 -9.71875 39.03125 -8.71875 C 39.800781 -7.71875 40.507812 -6.894531 41.15625 -6.25 C 41.800781 -5.601562 42.125 -4.632812 42.125 -3.34375 C 42.125 -1.582031 41.445312 -0.410156 40.09375 0.171875 C 38.738281 0.765625 37.066406 1.0625 35.078125 1.0625 C 32.960938 1.0625 30.695312 0.882812 28.28125 0.53125 C 25.875 0.175781 23.789062 0 22.03125 0 C 20.269531 0 18.179688 0.175781 15.765625 0.53125 C 13.359375 0.882812 11.097656 1.0625 8.984375 1.0625 C 6.984375 1.0625 5.304688 0.765625 3.953125 0.171875 C 2.609375 -0.410156 1.9375 -1.582031 1.9375 -3.34375 C 1.9375 -4.632812 2.226562 -5.601562 2.8125 -6.25 C 3.40625 -6.894531 4.113281 -7.71875 4.9375 -8.71875 C 5.757812 -9.71875 6.429688 -11.273438 6.953125 -13.390625 C 7.484375 -15.503906 7.75 -18.617188 7.75 -22.734375 Z M 7.75 -65.390625 "/></g></g></g><g fill="#004aad" fill-opacity="1"><g transform="translate(214.880483, 435.027441)"><g><path d="M 0.875 -3.34375 C 0.875 -4.757812 1.316406 -5.816406 2.203125 -6.515625 C 3.085938 -7.222656 4.289062 -8.164062 5.8125 -9.34375 C 7.34375 -10.519531 9.046875 -12.398438 10.921875 -14.984375 C 11.984375 -16.503906 13.304688 -19.378906 14.890625 -23.609375 C 16.472656 -27.835938 18.203125 -32.769531 20.078125 -38.40625 C 21.960938 -44.050781 23.875 -49.867188 25.8125 -55.859375 C 27.75 -61.859375 29.539062 -67.382812 31.1875 -72.4375 C 32.132812 -75.132812 32.488281 -77.097656 32.25 -78.328125 C 32.019531 -79.566406 31.519531 -80.507812 30.75 -81.15625 C 29.988281 -81.800781 29.285156 -82.390625 28.640625 -82.921875 C 27.992188 -83.453125 27.671875 -84.300781 27.671875 -85.46875 C 27.671875 -87.113281 28.40625 -88.140625 29.875 -88.546875 C 31.34375 -88.960938 33.015625 -89.171875 34.890625 -89.171875 C 37.128906 -89.171875 38.832031 -88.992188 40 -88.640625 C 41.175781 -88.296875 43.289062 -88.125 46.34375 -88.125 C 49.75 -88.125 52.390625 -88.296875 54.265625 -88.640625 C 56.148438 -88.992188 57.976562 -89.171875 59.75 -89.171875 C 61.039062 -89.171875 62.125 -88.992188 63 -88.640625 C 63.882812 -88.296875 64.738281 -87.125 65.5625 -85.125 C 66.613281 -82.65625 67.960938 -78.804688 69.609375 -73.578125 C 71.253906 -68.347656 73.046875 -62.5625 74.984375 -56.21875 C 76.921875 -49.875 78.890625 -43.617188 80.890625 -37.453125 C 82.890625 -31.285156 84.769531 -25.910156 86.53125 -21.328125 C 88.289062 -16.742188 89.757812 -13.6875 90.9375 -12.15625 C 92.9375 -9.6875 94.519531 -8.039062 95.6875 -7.21875 C 96.863281 -6.394531 97.453125 -5.101562 97.453125 -3.34375 C 97.453125 -1.582031 96.863281 -0.410156 95.6875 0.171875 C 94.519531 0.765625 92.9375 1.0625 90.9375 1.0625 C 88.707031 1.0625 86.035156 0.882812 82.921875 0.53125 C 79.804688 0.175781 76.425781 0 72.78125 0 C 71.019531 0 68.875 0.175781 66.34375 0.53125 C 63.820312 0.882812 61.382812 1.0625 59.03125 1.0625 C 56.914062 1.0625 55.125 0.765625 53.65625 0.171875 C 52.1875 -0.410156 51.453125 -1.582031 51.453125 -3.34375 C 51.453125 -5.101562 51.832031 -6.363281 52.59375 -7.125 C 53.363281 -7.894531 54.097656 -8.984375 54.796875 -10.390625 C 55.503906 -11.804688 55.859375 -14.21875 55.859375 -17.625 C 55.859375 -20.320312 55.210938 -22.4375 53.921875 -23.96875 C 52.628906 -25.5 50.988281 -26.265625 49 -26.265625 L 32.78125 -26.265625 C 30.78125 -26.265625 29.132812 -25.5 27.84375 -23.96875 C 26.550781 -22.4375 25.90625 -20.320312 25.90625 -17.625 C 25.90625 -14.21875 26.375 -11.75 27.3125 -10.21875 C 28.25 -8.695312 29.1875 -7.523438 30.125 -6.703125 C 31.070312 -5.878906 31.546875 -4.757812 31.546875 -3.34375 C 31.546875 -1.695312 30.898438 -0.550781 29.609375 0.09375 C 28.316406 0.738281 26.847656 1.0625 25.203125 1.0625 C 23.203125 1.0625 21.644531 0.882812 20.53125 0.53125 C 19.414062 0.175781 17.976562 0 16.21875 0 C 14.445312 0 13.003906 0.175781 11.890625 0.53125 C 10.773438 0.882812 9.21875 1.0625 7.21875 1.0625 C 5.582031 1.0625 4.113281 0.738281 2.8125 0.09375 C 1.519531 -0.550781 0.875 -1.695312 0.875 -3.34375 Z M 30.84375 -38.953125 C 29.90625 -36.242188 30.785156 -34.890625 33.484375 -34.890625 L 47.765625 -34.890625 C 50.460938 -34.890625 51.34375 -36.242188 50.40625 -38.953125 C 48.875 -43.410156 47.398438 -48.078125 45.984375 -52.953125 C 44.578125 -57.828125 43.40625 -61.910156 42.46875 -65.203125 C 42 -66.734375 41.472656 -67.5 40.890625 -67.5 C 40.421875 -67.5 39.890625 -66.796875 39.296875 -65.390625 C 38.117188 -62.097656 36.828125 -57.984375 35.421875 -53.046875 C 34.015625 -48.109375 32.488281 -43.410156 30.84375 -38.953125 Z M 30.84375 -38.953125 "/></g></g></g><g fill="#004aad" fill-opacity="1"><g transform="translate(313.218794, 435.027441)"><g><path d="M 1.765625 -84.765625 C 1.765625 -86.648438 2.320312 -87.882812 3.4375 -88.46875 C 4.550781 -89.050781 5.929688 -89.34375 7.578125 -89.34375 C 9.453125 -89.34375 11.503906 -89.164062 13.734375 -88.8125 C 15.972656 -88.46875 18.148438 -88.296875 20.265625 -88.296875 C 24.023438 -88.296875 27.875 -88.441406 31.8125 -88.734375 C 35.75 -89.023438 40.007812 -89.171875 44.59375 -89.171875 C 49.050781 -89.171875 53.394531 -88.875 57.625 -88.28125 C 61.851562 -87.695312 65.640625 -86.550781 68.984375 -84.84375 C 72.335938 -83.144531 75.015625 -80.617188 77.015625 -77.265625 C 79.015625 -73.921875 80.015625 -69.488281 80.015625 -63.96875 C 80.015625 -58.21875 78.484375 -53.488281 75.421875 -49.78125 C 72.367188 -46.082031 68.4375 -43.234375 63.625 -41.234375 C 65.03125 -41.234375 66.46875 -40.289062 67.9375 -38.40625 C 69.40625 -36.53125 70.875 -34.125 72.34375 -31.1875 C 73.8125 -28.25 75.25 -25.164062 76.65625 -21.9375 C 78.070312 -18.707031 79.425781 -15.742188 80.71875 -13.046875 C 81.769531 -10.929688 82.851562 -9.398438 83.96875 -8.453125 C 85.09375 -7.515625 86.066406 -6.75 86.890625 -6.15625 C 87.710938 -5.570312 88.125 -4.578125 88.125 -3.171875 C 88.125 -1.523438 87.710938 -0.410156 86.890625 0.171875 C 86.066406 0.765625 85.007812 1.0625 83.71875 1.0625 C 82.1875 1.0625 80.421875 0.882812 78.421875 0.53125 C 76.421875 0.175781 74.25 0 71.90625 0 C 70.726562 0 68.550781 0.175781 65.375 0.53125 C 62.207031 0.882812 59.445312 1.0625 57.09375 1.0625 C 54.632812 1.0625 52.875 -0.195312 51.8125 -2.71875 C 50.757812 -5.25 50.023438 -8.394531 49.609375 -12.15625 C 49.203125 -15.914062 48.734375 -19.703125 48.203125 -23.515625 C 47.671875 -27.335938 46.816406 -30.507812 45.640625 -33.03125 C 44.460938 -35.5625 42.523438 -36.828125 39.828125 -36.828125 C 36.890625 -36.828125 35.421875 -35.359375 35.421875 -32.421875 L 35.421875 -22.734375 C 35.421875 -18.617188 35.710938 -15.503906 36.296875 -13.390625 C 36.890625 -11.273438 37.597656 -9.71875 38.421875 -8.71875 C 39.242188 -7.71875 39.945312 -6.894531 40.53125 -6.25 C 41.125 -5.601562 41.421875 -4.632812 41.421875 -3.34375 C 41.421875 -1.582031 40.742188 -0.410156 39.390625 0.171875 C 38.035156 0.765625 36.359375 1.0625 34.359375 1.0625 C 32.367188 1.0625 30.195312 0.882812 27.84375 0.53125 C 25.5 0.175781 23.503906 0 21.859375 0 C 20.085938 0 18 0.175781 15.59375 0.53125 C 13.1875 0.882812 10.925781 1.0625 8.8125 1.0625 C 6.8125 1.0625 5.132812 0.765625 3.78125 0.171875 C 2.4375 -0.410156 1.765625 -1.582031 1.765625 -3.34375 C 1.765625 -4.632812 2.054688 -5.601562 2.640625 -6.25 C 3.234375 -6.894531 3.9375 -7.71875 4.75 -8.71875 C 5.570312 -9.71875 6.273438 -11.273438 6.859375 -13.390625 C 7.453125 -15.503906 7.75 -18.617188 7.75 -22.734375 L 7.75 -65.390625 C 7.75 -69.492188 7.453125 -72.601562 6.859375 -74.71875 C 6.273438 -76.832031 5.570312 -78.390625 4.75 -79.390625 C 3.9375 -80.390625 3.234375 -81.210938 2.640625 -81.859375 C 2.054688 -82.503906 1.765625 -83.472656 1.765625 -84.765625 Z M 35.25 -52.171875 C 35.25 -50.753906 35.6875 -49.75 36.5625 -49.15625 C 37.445312 -48.570312 38.476562 -48.28125 39.65625 -48.28125 C 43.289062 -48.28125 46.222656 -49.660156 48.453125 -52.421875 C 50.691406 -55.191406 51.8125 -58.925781 51.8125 -63.625 C 51.8125 -73.601562 47.757812 -78.59375 39.65625 -78.59375 C 38.476562 -78.59375 37.445312 -78.269531 36.5625 -77.625 C 35.6875 -76.976562 35.25 -75.953125 35.25 -74.546875 Z M 35.25 -52.171875 "/></g></g></g><g fill="#000000" fill-opacity="1"><g transform="translate(319.652243, 476.982757)"><g><path d="M 18.125 -5.578125 C 19.425781 -4.742188 20.21875 -3.695312 20.5 -2.4375 C 20.78125 -1.1875 20.570312 -0.257812 19.875 0.34375 C 19.175781 0.945312 17.988281 0.691406 16.3125 -0.421875 C 14.914062 -1.253906 13.378906 -1.578125 11.703125 -1.390625 C 10.035156 -1.203125 8.363281 -0.832031 6.6875 -0.28125 C 8.738281 2.601562 9.8125 5.925781 9.90625 9.6875 C 10 13.457031 9.8125 17.203125 9.34375 20.921875 C 8.695312 26.128906 7.675781 31.21875 6.28125 36.1875 C 4.882812 41.164062 2.421875 45.65625 -1.109375 49.65625 C -1.484375 50.113281 -1.992188 50.273438 -2.640625 50.140625 C -3.296875 50.003906 -3.859375 49.84375 -4.328125 49.65625 C -7.671875 47.601562 -10.039062 45.019531 -11.4375 41.90625 C -12.832031 38.789062 -13.597656 35.421875 -13.734375 31.796875 C -13.878906 28.171875 -13.625 24.519531 -12.96875 20.84375 C -12.320312 17.175781 -11.625 13.710938 -10.875 10.453125 C -9.113281 3.109375 -6.648438 -3.976562 -3.484375 -10.8125 C -0.328125 -17.644531 3.296875 -24.222656 7.390625 -30.546875 C 7.859375 -31.191406 8.53125 -31.375 9.40625 -31.09375 C 10.289062 -30.820312 11.175781 -30.265625 12.0625 -29.421875 C 12.945312 -28.585938 13.597656 -27.679688 14.015625 -26.703125 C 14.429688 -25.734375 14.410156 -24.875 13.953125 -24.125 C 10.597656 -18.914062 7.617188 -13.617188 5.015625 -8.234375 C 7.253906 -8.597656 9.441406 -8.59375 11.578125 -8.21875 C 13.710938 -7.851562 15.894531 -6.972656 18.125 -5.578125 Z M 2.65625 11.15625 C 2.75 9.851562 2.835938 8.0625 2.921875 5.78125 C 3.015625 3.507812 2.363281 1.90625 0.96875 0.96875 C 0.601562 2 0.210938 3.070312 -0.203125 4.1875 C -0.628906 5.300781 -1.023438 6.414062 -1.390625 7.53125 C -2.410156 10.78125 -3.289062 14.054688 -4.03125 17.359375 C -4.78125 20.660156 -5.34375 23.984375 -5.71875 27.328125 C -5.8125 28.171875 -5.972656 29.425781 -6.203125 31.09375 C -6.441406 32.769531 -6.5625 34.535156 -6.5625 36.390625 C -6.5625 38.253906 -6.328125 39.835938 -5.859375 41.140625 C -3.898438 38.441406 -2.382812 35.554688 -1.3125 32.484375 C -0.25 29.421875 0.554688 26.21875 1.109375 22.875 C 1.484375 21.007812 1.785156 19.078125 2.015625 17.078125 C 2.253906 15.085938 2.46875 13.113281 2.65625 11.15625 Z M 2.65625 11.15625 "/></g></g></g><g fill="#000000" fill-opacity="1"><g transform="translate(348.799616, 476.982757)"><g><path d="M 25.796875 -18.265625 C 26.265625 -17.523438 26.425781 -16.757812 26.28125 -15.96875 C 26.144531 -15.175781 25.566406 -14.734375 24.546875 -14.640625 C 23.804688 -14.640625 23.109375 -14.847656 22.453125 -15.265625 C 21.804688 -15.691406 21.203125 -16.226562 20.640625 -16.875 C 19.710938 -16.875 18.457031 -16.316406 16.875 -15.203125 C 15.289062 -14.085938 14.222656 -13.34375 13.671875 -12.96875 C 12.648438 -12.226562 11.671875 -11.414062 10.734375 -10.53125 C 9.804688 -9.644531 8.878906 -8.738281 7.953125 -7.8125 C 3.953125 -3.53125 0.789062 1.117188 -1.53125 6.140625 C -2.09375 7.347656 -3.023438 7.671875 -4.328125 7.109375 C -5.628906 6.554688 -6.765625 5.628906 -7.734375 4.328125 C -8.710938 3.023438 -9.015625 1.90625 -8.640625 0.96875 C -7.160156 -3.207031 -5.601562 -7.316406 -3.96875 -11.359375 C -2.34375 -15.410156 -0.785156 -19.523438 0.703125 -23.703125 C 1.066406 -24.640625 1.757812 -24.988281 2.78125 -24.75 C 3.8125 -24.519531 4.835938 -23.941406 5.859375 -23.015625 C 6.878906 -22.085938 7.578125 -21.109375 7.953125 -20.078125 C 11.109375 -22.492188 14.289062 -23.816406 17.5 -24.046875 C 20.707031 -24.285156 23.472656 -22.359375 25.796875 -18.265625 Z M 25.796875 -18.265625 "/></g></g></g><g fill="#000000" fill-opacity="1"><g transform="translate(382.688676, 476.982757)"><g><path d="M 16.3125 -18.40625 C 16.6875 -14.78125 16.382812 -11.222656 15.40625 -7.734375 C 14.4375 -4.253906 12.832031 -1.117188 10.59375 1.671875 C 8.550781 4.367188 6.066406 6.113281 3.140625 6.90625 C 0.210938 7.695312 -2.550781 6.648438 -5.15625 3.765625 C -7.476562 1.160156 -8.453125 -1.671875 -8.078125 -4.734375 C -7.710938 -7.804688 -6.503906 -10.78125 -4.453125 -13.65625 C -2.410156 -16.539062 -0.046875 -19.125 2.640625 -21.40625 C 5.335938 -23.6875 7.804688 -25.382812 10.046875 -26.5 C 10.972656 -26.96875 12.015625 -26.78125 13.171875 -25.9375 C 14.335938 -25.101562 15.242188 -24.054688 15.890625 -22.796875 C 16.546875 -21.546875 16.550781 -20.546875 15.90625 -19.796875 C 16.082031 -19.335938 16.21875 -18.875 16.3125 -18.40625 Z M 6.828125 -9.0625 C 7.671875 -10.925781 8.273438 -12.878906 8.640625 -14.921875 C 7.253906 -13.710938 6 -12.410156 4.875 -11.015625 C 3.488281 -9.253906 2.328125 -7.347656 1.390625 -5.296875 C 1.109375 -4.835938 0.875 -4.375 0.6875 -3.90625 C 0.507812 -3.4375 0.328125 -2.972656 0.140625 -2.515625 C 0.140625 -2.421875 0.113281 -2.1875 0.0625 -1.8125 C 0.0195312 -1.4375 -0.046875 -1.113281 -0.140625 -0.84375 C 0.421875 -1.300781 0.957031 -1.691406 1.46875 -2.015625 C 1.976562 -2.347656 2.460938 -2.742188 2.921875 -3.203125 C 4.503906 -4.972656 5.804688 -6.925781 6.828125 -9.0625 Z M 6.828125 -9.0625 "/></g></g></g><g fill="#004aad" fill-opacity="1"><g transform="translate(413.552287, 478.013812)"><g><path d="M 1.234375 -59.5625 C 1.234375 -60.707031 1.660156 -61.441406 2.515625 -61.765625 C 3.378906 -62.097656 4.46875 -62.265625 5.78125 -62.265625 C 7.34375 -62.265625 9.046875 -62.140625 10.890625 -61.890625 C 12.734375 -61.648438 14.4375 -61.53125 16 -61.53125 C 17.71875 -61.53125 19.296875 -61.671875 20.734375 -61.953125 C 22.171875 -62.242188 23.546875 -62.390625 24.859375 -62.390625 C 26.253906 -62.390625 27.546875 -62 28.734375 -61.21875 C 29.921875 -60.4375 30.96875 -58.859375 31.875 -56.484375 C 31.875 -56.484375 32.46875 -54.65625 33.65625 -51 C 34.84375 -47.351562 36.378906 -42.820312 38.265625 -37.40625 C 38.921875 -35.601562 39.578125 -35.601562 40.234375 -37.40625 C 42.203125 -42.820312 43.757812 -47.351562 44.90625 -51 C 46.0625 -54.65625 46.640625 -56.484375 46.640625 -56.484375 C 47.546875 -58.859375 48.570312 -60.4375 49.71875 -61.21875 C 50.863281 -62 52.09375 -62.390625 53.40625 -62.390625 C 54.550781 -62.390625 55.738281 -62.242188 56.96875 -61.953125 C 58.207031 -61.671875 59.484375 -61.53125 60.796875 -61.53125 C 62.429688 -61.53125 64.148438 -61.648438 65.953125 -61.890625 C 67.765625 -62.140625 69.445312 -62.265625 71 -62.265625 C 72.394531 -62.265625 73.503906 -62.097656 74.328125 -61.765625 C 75.148438 -61.441406 75.5625 -60.707031 75.5625 -59.5625 C 75.5625 -58.5 75.351562 -57.675781 74.9375 -57.09375 C 74.53125 -56.519531 74.039062 -55.90625 73.46875 -55.25 C 72.894531 -54.59375 72.398438 -53.546875 71.984375 -52.109375 C 71.578125 -50.679688 71.375 -48.53125 71.375 -45.65625 L 71.375 -15.875 C 71.375 -13 71.578125 -10.820312 71.984375 -9.34375 C 72.398438 -7.875 72.894531 -6.789062 73.46875 -6.09375 C 74.039062 -5.394531 74.53125 -4.816406 74.9375 -4.359375 C 75.351562 -3.910156 75.5625 -3.238281 75.5625 -2.34375 C 75.5625 -1.113281 75.085938 -0.296875 74.140625 0.109375 C 73.203125 0.523438 72.035156 0.734375 70.640625 0.734375 C 69.160156 0.734375 67.578125 0.609375 65.890625 0.359375 C 64.210938 0.117188 62.757812 0 61.53125 0 C 60.300781 0 58.84375 0.117188 57.15625 0.359375 C 55.476562 0.609375 53.898438 0.734375 52.421875 0.734375 C 51.023438 0.734375 49.851562 0.523438 48.90625 0.109375 C 47.96875 -0.296875 47.5 -1.113281 47.5 -2.34375 C 47.5 -3.238281 47.703125 -3.910156 48.109375 -4.359375 C 48.523438 -4.816406 49.019531 -5.394531 49.59375 -6.09375 C 50.164062 -6.789062 50.65625 -7.875 51.0625 -9.34375 C 51.476562 -10.820312 51.6875 -13 51.6875 -15.875 C 51.6875 -17.351562 51.6875 -19.320312 51.6875 -21.78125 C 51.6875 -24.238281 51.664062 -26.882812 51.625 -29.71875 C 51.582031 -32.550781 51.5625 -35.359375 51.5625 -38.140625 C 51.5625 -40.929688 51.5625 -43.351562 51.5625 -45.40625 C 51.5625 -45.570312 51.4375 -45.738281 51.1875 -45.90625 C 50.945312 -46.070312 50.742188 -45.945312 50.578125 -45.53125 C 50.003906 -43.726562 49.160156 -41.207031 48.046875 -37.96875 C 46.941406 -34.726562 45.734375 -31.15625 44.421875 -27.25 C 43.109375 -23.351562 41.753906 -19.394531 40.359375 -15.375 C 38.960938 -11.363281 37.691406 -7.675781 36.546875 -4.3125 C 35.972656 -2.5 35.398438 -1.203125 34.828125 -0.421875 C 34.253906 0.347656 33.394531 0.734375 32.25 0.734375 C 31.425781 0.734375 30.707031 0.285156 30.09375 -0.609375 C 29.476562 -1.515625 28.878906 -2.75 28.296875 -4.3125 C 27.066406 -7.675781 25.796875 -11.347656 24.484375 -15.328125 C 23.171875 -19.304688 21.859375 -23.265625 20.546875 -27.203125 C 19.234375 -31.140625 18.0625 -34.726562 17.03125 -37.96875 C 16.007812 -41.207031 15.171875 -43.726562 14.515625 -45.53125 C 14.429688 -45.945312 14.242188 -46.070312 13.953125 -45.90625 C 13.671875 -45.738281 13.53125 -45.570312 13.53125 -45.40625 L 13.53125 -15.875 C 13.53125 -13 13.734375 -10.78125 14.140625 -9.21875 C 14.554688 -7.664062 15.050781 -6.5 15.625 -5.71875 C 16.195312 -4.9375 16.6875 -4.28125 17.09375 -3.75 C 17.507812 -3.21875 17.71875 -2.5 17.71875 -1.59375 C 17.71875 -0.695312 17.472656 -0.0859375 16.984375 0.234375 C 16.492188 0.566406 15.878906 0.734375 15.140625 0.734375 C 14.234375 0.734375 13.222656 0.609375 12.109375 0.359375 C 11.003906 0.117188 10.046875 0 9.234375 0 C 8.410156 0 7.503906 0.117188 6.515625 0.359375 C 5.535156 0.609375 4.59375 0.734375 3.6875 0.734375 C 3.03125 0.734375 2.457031 0.566406 1.96875 0.234375 C 1.476562 -0.0859375 1.234375 -0.695312 1.234375 -1.59375 C 1.234375 -2.5 1.4375 -3.21875 1.84375 -3.75 C 2.257812 -4.28125 2.753906 -4.9375 3.328125 -5.71875 C 3.898438 -6.5 4.390625 -7.664062 4.796875 -9.21875 C 5.210938 -10.78125 5.421875 -13 5.421875 -15.875 L 5.421875 -45.65625 C 5.421875 -48.53125 5.210938 -50.679688 4.796875 -52.109375 C 4.390625 -53.546875 3.898438 -54.59375 3.328125 -55.25 C 2.753906 -55.90625 2.257812 -56.519531 1.84375 -57.09375 C 1.4375 -57.675781 1.234375 -58.5 1.234375 -59.5625 Z M 1.234375 -59.5625 "/></g></g></g><g fill="#000000" fill-opacity="0.302"><g transform="translate(609.217773, 472.581191)"><g><path d="M 28.09375 -12.3125 C 28.09375 -10.601562 27.796875 -8.960938 27.203125 -7.390625 C 26.609375 -5.828125 25.757812 -4.453125 24.65625 -3.265625 C 23.550781 -2.078125 22.210938 -1.132812 20.640625 -0.4375 C 19.078125 0.25 17.328125 0.59375 15.390625 0.59375 C 13.410156 0.59375 11.617188 0.238281 10.015625 -0.46875 C 8.421875 -1.175781 7.066406 -2.125 5.953125 -3.3125 C 4.847656 -4.5 3.988281 -5.875 3.375 -7.4375 C 2.769531 -9.007812 2.46875 -10.632812 2.46875 -12.3125 C 2.46875 -14.03125 2.769531 -15.671875 3.375 -17.234375 C 3.988281 -18.804688 4.847656 -20.1875 5.953125 -21.375 C 7.066406 -22.5625 8.421875 -23.507812 10.015625 -24.21875 C 11.617188 -24.925781 13.410156 -25.28125 15.390625 -25.28125 C 17.328125 -25.28125 19.078125 -24.925781 20.640625 -24.21875 C 22.210938 -23.507812 23.550781 -22.5625 24.65625 -21.375 C 25.757812 -20.1875 26.609375 -18.804688 27.203125 -17.234375 C 27.796875 -15.671875 28.09375 -14.03125 28.09375 -12.3125 Z M 23.40625 -12.3125 C 23.40625 -14.625 23.15625 -16.492188 22.65625 -17.921875 C 22.164062 -19.359375 21.523438 -20.472656 20.734375 -21.265625 C 19.941406 -22.054688 19.066406 -22.59375 18.109375 -22.875 C 17.148438 -23.15625 16.222656 -23.296875 15.328125 -23.296875 C 14.441406 -23.296875 13.519531 -23.15625 12.5625 -22.875 C 11.601562 -22.59375 10.71875 -22.054688 9.90625 -21.265625 C 9.101562 -20.472656 8.445312 -19.359375 7.9375 -17.921875 C 7.425781 -16.492188 7.171875 -14.625 7.171875 -12.3125 C 7.171875 -10.039062 7.425781 -8.1875 7.9375 -6.75 C 8.445312 -5.3125 9.101562 -4.195312 9.90625 -3.40625 C 10.71875 -2.613281 11.601562 -2.078125 12.5625 -1.796875 C 13.519531 -1.523438 14.441406 -1.390625 15.328125 -1.390625 C 16.222656 -1.390625 17.148438 -1.523438 18.109375 -1.796875 C 19.066406 -2.078125 19.941406 -2.613281 20.734375 -3.40625 C 21.523438 -4.195312 22.164062 -5.3125 22.65625 -6.75 C 23.15625 -8.1875 23.40625 -10.039062 23.40625 -12.3125 Z M 23.40625 -12.3125 "/></g></g></g><g fill="#000000" fill-opacity="0.302"><g transform="translate(639.791317, 472.581191)"><g><path d="M 8.15625 0 L 8.15625 -14.09375 C 8.15625 -14.6875 8.203125 -15.46875 8.296875 -16.4375 C 8.398438 -17.414062 8.660156 -18.375 9.078125 -19.3125 C 9.492188 -20.257812 10.128906 -21.066406 10.984375 -21.734375 C 11.835938 -22.410156 13.039062 -22.75 14.59375 -22.75 C 15.71875 -22.75 16.582031 -22.5 17.1875 -22 C 17.800781 -21.507812 18.253906 -20.898438 18.546875 -20.171875 C 18.847656 -19.453125 19.019531 -18.695312 19.0625 -17.90625 C 19.113281 -17.113281 19.140625 -16.421875 19.140625 -15.828125 L 19.140625 0 L 23.34375 0 L 23.34375 -14.09375 C 23.34375 -14.820312 23.410156 -15.6875 23.546875 -16.6875 C 23.679688 -17.695312 23.960938 -18.644531 24.390625 -19.53125 C 24.816406 -20.425781 25.429688 -21.1875 26.234375 -21.8125 C 27.046875 -22.4375 28.144531 -22.75 29.53125 -22.75 C 30.550781 -22.75 31.375 -22.597656 32 -22.296875 C 32.632812 -22.003906 33.125 -21.5625 33.46875 -20.96875 C 33.8125 -20.375 34.039062 -19.648438 34.15625 -18.796875 C 34.269531 -17.941406 34.328125 -16.953125 34.328125 -15.828125 L 34.328125 0 L 38.53125 0 L 38.53125 -17.265625 C 38.53125 -18.023438 38.445312 -18.875 38.28125 -19.8125 C 38.125 -20.75 37.769531 -21.617188 37.21875 -22.421875 C 36.675781 -23.234375 35.882812 -23.910156 34.84375 -24.453125 C 33.8125 -25.003906 32.4375 -25.28125 30.71875 -25.28125 C 30.226562 -25.28125 29.648438 -25.226562 28.984375 -25.125 C 28.328125 -25.03125 27.632812 -24.816406 26.90625 -24.484375 C 26.1875 -24.160156 25.488281 -23.679688 24.8125 -23.046875 C 24.132812 -22.421875 23.546875 -21.597656 23.046875 -20.578125 L 22.703125 -20.578125 C 22.503906 -21.109375 22.222656 -21.644531 21.859375 -22.1875 C 21.503906 -22.726562 21.046875 -23.226562 20.484375 -23.6875 C 19.921875 -24.15625 19.25 -24.535156 18.46875 -24.828125 C 17.695312 -25.128906 16.769531 -25.28125 15.6875 -25.28125 C 15.1875 -25.28125 14.585938 -25.222656 13.890625 -25.109375 C 13.203125 -24.992188 12.507812 -24.769531 11.8125 -24.4375 C 11.125 -24.101562 10.472656 -23.640625 9.859375 -23.046875 C 9.253906 -22.453125 8.753906 -21.679688 8.359375 -20.734375 L 8.15625 -20.734375 L 8.15625 -24.734375 L 3.953125 -24.734375 L 3.953125 0 Z M 8.15625 0 "/></g></g></g><g fill="#000000" fill-opacity="0.302"><g transform="translate(682.287547, 472.581191)"><g><path d="M 25.921875 -11.28125 L 25.921875 -12.3125 C 25.921875 -14.519531 25.609375 -16.429688 24.984375 -18.046875 C 24.359375 -19.671875 23.507812 -21.007812 22.4375 -22.0625 C 21.363281 -23.113281 20.117188 -23.90625 18.703125 -24.4375 C 17.285156 -24.96875 15.785156 -25.234375 14.203125 -25.234375 C 12.515625 -25.234375 10.960938 -24.941406 9.546875 -24.359375 C 8.128906 -23.785156 6.890625 -22.945312 5.828125 -21.84375 C 4.773438 -20.738281 3.953125 -19.398438 3.359375 -17.828125 C 2.765625 -16.265625 2.46875 -14.492188 2.46875 -12.515625 C 2.46875 -10.867188 2.722656 -9.257812 3.234375 -7.6875 C 3.742188 -6.125 4.519531 -4.722656 5.5625 -3.484375 C 6.601562 -2.242188 7.921875 -1.253906 9.515625 -0.515625 C 11.117188 0.222656 13.007812 0.59375 15.1875 0.59375 C 17.300781 0.59375 19.25 0.222656 21.03125 -0.515625 C 22.8125 -1.253906 24.359375 -2.316406 25.671875 -3.703125 L 24.09375 -5.296875 C 23.394531 -4.703125 22.738281 -4.15625 22.125 -3.65625 C 21.519531 -3.164062 20.90625 -2.753906 20.28125 -2.421875 C 19.65625 -2.085938 19.003906 -1.832031 18.328125 -1.65625 C 17.648438 -1.476562 16.898438 -1.390625 16.078125 -1.390625 C 15.148438 -1.390625 14.164062 -1.523438 13.125 -1.796875 C 12.09375 -2.078125 11.128906 -2.582031 10.234375 -3.3125 C 9.347656 -4.039062 8.609375 -5.046875 8.015625 -6.328125 C 7.421875 -7.617188 7.125 -9.269531 7.125 -11.28125 Z M 7.125 -13.25 C 7.125 -14.570312 7.265625 -15.851562 7.546875 -17.09375 C 7.828125 -18.332031 8.253906 -19.425781 8.828125 -20.375 C 9.410156 -21.332031 10.144531 -22.097656 11.03125 -22.671875 C 11.925781 -23.253906 12.984375 -23.546875 14.203125 -23.546875 C 16.535156 -23.546875 18.351562 -22.628906 19.65625 -20.796875 C 20.96875 -18.972656 21.625 -16.457031 21.625 -13.25 Z M 7.125 -13.25 "/></g></g></g><g fill="#000000" fill-opacity="0.502"><g transform="translate(607.031037, 470.394479)"><g><path d="M 28.09375 -12.3125 C 28.09375 -10.601562 27.796875 -8.960938 27.203125 -7.390625 C 26.609375 -5.828125 25.757812 -4.453125 24.65625 -3.265625 C 23.550781 -2.078125 22.210938 -1.132812 20.640625 -0.4375 C 19.078125 0.25 17.328125 0.59375 15.390625 0.59375 C 13.410156 0.59375 11.617188 0.238281 10.015625 -0.46875 C 8.421875 -1.175781 7.066406 -2.125 5.953125 -3.3125 C 4.847656 -4.5 3.988281 -5.875 3.375 -7.4375 C 2.769531 -9.007812 2.46875 -10.632812 2.46875 -12.3125 C 2.46875 -14.03125 2.769531 -15.671875 3.375 -17.234375 C 3.988281 -18.804688 4.847656 -20.1875 5.953125 -21.375 C 7.066406 -22.5625 8.421875 -23.507812 10.015625 -24.21875 C 11.617188 -24.925781 13.410156 -25.28125 15.390625 -25.28125 C 17.328125 -25.28125 19.078125 -24.925781 20.640625 -24.21875 C 22.210938 -23.507812 23.550781 -22.5625 24.65625 -21.375 C 25.757812 -20.1875 26.609375 -18.804688 27.203125 -17.234375 C 27.796875 -15.671875 28.09375 -14.03125 28.09375 -12.3125 Z M 23.40625 -12.3125 C 23.40625 -14.625 23.15625 -16.492188 22.65625 -17.921875 C 22.164062 -19.359375 21.523438 -20.472656 20.734375 -21.265625 C 19.941406 -22.054688 19.066406 -22.59375 18.109375 -22.875 C 17.148438 -23.15625 16.222656 -23.296875 15.328125 -23.296875 C 14.441406 -23.296875 13.519531 -23.15625 12.5625 -22.875 C 11.601562 -22.59375 10.71875 -22.054688 9.90625 -21.265625 C 9.101562 -20.472656 8.445312 -19.359375 7.9375 -17.921875 C 7.425781 -16.492188 7.171875 -14.625 7.171875 -12.3125 C 7.171875 -10.039062 7.425781 -8.1875 7.9375 -6.75 C 8.445312 -5.3125 9.101562 -4.195312 9.90625 -3.40625 C 10.71875 -2.613281 11.601562 -2.078125 12.5625 -1.796875 C 13.519531 -1.523438 14.441406 -1.390625 15.328125 -1.390625 C 16.222656 -1.390625 17.148438 -1.523438 18.109375 -1.796875 C 19.066406 -2.078125 19.941406 -2.613281 20.734375 -3.40625 C 21.523438 -4.195312 22.164062 -5.3125 22.65625 -6.75 C 23.15625 -8.1875 23.40625 -10.039062 23.40625 -12.3125 Z M 23.40625 -12.3125 "/></g></g></g><g fill="#000000" fill-opacity="0.502"><g transform="translate(637.604581, 470.394479)"><g><path d="M 8.15625 0 L 8.15625 -14.09375 C 8.15625 -14.6875 8.203125 -15.46875 8.296875 -16.4375 C 8.398438 -17.414062 8.660156 -18.375 9.078125 -19.3125 C 9.492188 -20.257812 10.128906 -21.066406 10.984375 -21.734375 C 11.835938 -22.410156 13.039062 -22.75 14.59375 -22.75 C 15.71875 -22.75 16.582031 -22.5 17.1875 -22 C 17.800781 -21.507812 18.253906 -20.898438 18.546875 -20.171875 C 18.847656 -19.453125 19.019531 -18.695312 19.0625 -17.90625 C 19.113281 -17.113281 19.140625 -16.421875 19.140625 -15.828125 L 19.140625 0 L 23.34375 0 L 23.34375 -14.09375 C 23.34375 -14.820312 23.410156 -15.6875 23.546875 -16.6875 C 23.679688 -17.695312 23.960938 -18.644531 24.390625 -19.53125 C 24.816406 -20.425781 25.429688 -21.1875 26.234375 -21.8125 C 27.046875 -22.4375 28.144531 -22.75 29.53125 -22.75 C 30.550781 -22.75 31.375 -22.597656 32 -22.296875 C 32.632812 -22.003906 33.125 -21.5625 33.46875 -20.96875 C 33.8125 -20.375 34.039062 -19.648438 34.15625 -18.796875 C 34.269531 -17.941406 34.328125 -16.953125 34.328125 -15.828125 L 34.328125 0 L 38.53125 0 L 38.53125 -17.265625 C 38.53125 -18.023438 38.445312 -18.875 38.28125 -19.8125 C 38.125 -20.75 37.769531 -21.617188 37.21875 -22.421875 C 36.675781 -23.234375 35.882812 -23.910156 34.84375 -24.453125 C 33.8125 -25.003906 32.4375 -25.28125 30.71875 -25.28125 C 30.226562 -25.28125 29.648438 -25.226562 28.984375 -25.125 C 28.328125 -25.03125 27.632812 -24.816406 26.90625 -24.484375 C 26.1875 -24.160156 25.488281 -23.679688 24.8125 -23.046875 C 24.132812 -22.421875 23.546875 -21.597656 23.046875 -20.578125 L 22.703125 -20.578125 C 22.503906 -21.109375 22.222656 -21.644531 21.859375 -22.1875 C 21.503906 -22.726562 21.046875 -23.226562 20.484375 -23.6875 C 19.921875 -24.15625 19.25 -24.535156 18.46875 -24.828125 C 17.695312 -25.128906 16.769531 -25.28125 15.6875 -25.28125 C 15.1875 -25.28125 14.585938 -25.222656 13.890625 -25.109375 C 13.203125 -24.992188 12.507812 -24.769531 11.8125 -24.4375 C 11.125 -24.101562 10.472656 -23.640625 9.859375 -23.046875 C 9.253906 -22.453125 8.753906 -21.679688 8.359375 -20.734375 L 8.15625 -20.734375 L 8.15625 -24.734375 L 3.953125 -24.734375 L 3.953125 0 Z M 8.15625 0 "/></g></g></g><g fill="#000000" fill-opacity="0.502"><g transform="translate(680.100811, 470.394479)"><g><path d="M 25.921875 -11.28125 L 25.921875 -12.3125 C 25.921875 -14.519531 25.609375 -16.429688 24.984375 -18.046875 C 24.359375 -19.671875 23.507812 -21.007812 22.4375 -22.0625 C 21.363281 -23.113281 20.117188 -23.90625 18.703125 -24.4375 C 17.285156 -24.96875 15.785156 -25.234375 14.203125 -25.234375 C 12.515625 -25.234375 10.960938 -24.941406 9.546875 -24.359375 C 8.128906 -23.785156 6.890625 -22.945312 5.828125 -21.84375 C 4.773438 -20.738281 3.953125 -19.398438 3.359375 -17.828125 C 2.765625 -16.265625 2.46875 -14.492188 2.46875 -12.515625 C 2.46875 -10.867188 2.722656 -9.257812 3.234375 -7.6875 C 3.742188 -6.125 4.519531 -4.722656 5.5625 -3.484375 C 6.601562 -2.242188 7.921875 -1.253906 9.515625 -0.515625 C 11.117188 0.222656 13.007812 0.59375 15.1875 0.59375 C 17.300781 0.59375 19.25 0.222656 21.03125 -0.515625 C 22.8125 -1.253906 24.359375 -2.316406 25.671875 -3.703125 L 24.09375 -5.296875 C 23.394531 -4.703125 22.738281 -4.15625 22.125 -3.65625 C 21.519531 -3.164062 20.90625 -2.753906 20.28125 -2.421875 C 19.65625 -2.085938 19.003906 -1.832031 18.328125 -1.65625 C 17.648438 -1.476562 16.898438 -1.390625 16.078125 -1.390625 C 15.148438 -1.390625 14.164062 -1.523438 13.125 -1.796875 C 12.09375 -2.078125 11.128906 -2.582031 10.234375 -3.3125 C 9.347656 -4.039062 8.609375 -5.046875 8.015625 -6.328125 C 7.421875 -7.617188 7.125 -9.269531 7.125 -11.28125 Z M 7.125 -13.25 C 7.125 -14.570312 7.265625 -15.851562 7.546875 -17.09375 C 7.828125 -18.332031 8.253906 -19.425781 8.828125 -20.375 C 9.410156 -21.332031 10.144531 -22.097656 11.03125 -22.671875 C 11.925781 -23.253906 12.984375 -23.546875 14.203125 -23.546875 C 16.535156 -23.546875 18.351562 -22.628906 19.65625 -20.796875 C 20.96875 -18.972656 21.625 -16.457031 21.625 -13.25 Z M 7.125 -13.25 "/></g></g></g><g fill="#000000" fill-opacity="1"><g transform="translate(604.844325, 468.207744)"><g><path d="M 28.09375 -12.3125 C 28.09375 -10.601562 27.796875 -8.960938 27.203125 -7.390625 C 26.609375 -5.828125 25.757812 -4.453125 24.65625 -3.265625 C 23.550781 -2.078125 22.210938 -1.132812 20.640625 -0.4375 C 19.078125 0.25 17.328125 0.59375 15.390625 0.59375 C 13.410156 0.59375 11.617188 0.238281 10.015625 -0.46875 C 8.421875 -1.175781 7.066406 -2.125 5.953125 -3.3125 C 4.847656 -4.5 3.988281 -5.875 3.375 -7.4375 C 2.769531 -9.007812 2.46875 -10.632812 2.46875 -12.3125 C 2.46875 -14.03125 2.769531 -15.671875 3.375 -17.234375 C 3.988281 -18.804688 4.847656 -20.1875 5.953125 -21.375 C 7.066406 -22.5625 8.421875 -23.507812 10.015625 -24.21875 C 11.617188 -24.925781 13.410156 -25.28125 15.390625 -25.28125 C 17.328125 -25.28125 19.078125 -24.925781 20.640625 -24.21875 C 22.210938 -23.507812 23.550781 -22.5625 24.65625 -21.375 C 25.757812 -20.1875 26.609375 -18.804688 27.203125 -17.234375 C 27.796875 -15.671875 28.09375 -14.03125 28.09375 -12.3125 Z M 23.40625 -12.3125 C 23.40625 -14.625 23.15625 -16.492188 22.65625 -17.921875 C 22.164062 -19.359375 21.523438 -20.472656 20.734375 -21.265625 C 19.941406 -22.054688 19.066406 -22.59375 18.109375 -22.875 C 17.148438 -23.15625 16.222656 -23.296875 15.328125 -23.296875 C 14.441406 -23.296875 13.519531 -23.15625 12.5625 -22.875 C 11.601562 -22.59375 10.71875 -22.054688 9.90625 -21.265625 C 9.101562 -20.472656 8.445312 -19.359375 7.9375 -17.921875 C 7.425781 -16.492188 7.171875 -14.625 7.171875 -12.3125 C 7.171875 -10.039062 7.425781 -8.1875 7.9375 -6.75 C 8.445312 -5.3125 9.101562 -4.195312 9.90625 -3.40625 C 10.71875 -2.613281 11.601562 -2.078125 12.5625 -1.796875 C 13.519531 -1.523438 14.441406 -1.390625 15.328125 -1.390625 C 16.222656 -1.390625 17.148438 -1.523438 18.109375 -1.796875 C 19.066406 -2.078125 19.941406 -2.613281 20.734375 -3.40625 C 21.523438 -4.195312 22.164062 -5.3125 22.65625 -6.75 C 23.15625 -8.1875 23.40625 -10.039062 23.40625 -12.3125 Z M 23.40625 -12.3125 "/></g></g></g><g fill="#000000" fill-opacity="1"><g transform="translate(635.417869, 468.207744)"><g><path d="M 8.15625 0 L 8.15625 -14.09375 C 8.15625 -14.6875 8.203125 -15.46875 8.296875 -16.4375 C 8.398438 -17.414062 8.660156 -18.375 9.078125 -19.3125 C 9.492188 -20.257812 10.128906 -21.066406 10.984375 -21.734375 C 11.835938 -22.410156 13.039062 -22.75 14.59375 -22.75 C 15.71875 -22.75 16.582031 -22.5 17.1875 -22 C 17.800781 -21.507812 18.253906 -20.898438 18.546875 -20.171875 C 18.847656 -19.453125 19.019531 -18.695312 19.0625 -17.90625 C 19.113281 -17.113281 19.140625 -16.421875 19.140625 -15.828125 L 19.140625 0 L 23.34375 0 L 23.34375 -14.09375 C 23.34375 -14.820312 23.410156 -15.6875 23.546875 -16.6875 C 23.679688 -17.695312 23.960938 -18.644531 24.390625 -19.53125 C 24.816406 -20.425781 25.429688 -21.1875 26.234375 -21.8125 C 27.046875 -22.4375 28.144531 -22.75 29.53125 -22.75 C 30.550781 -22.75 31.375 -22.597656 32 -22.296875 C 32.632812 -22.003906 33.125 -21.5625 33.46875 -20.96875 C 33.8125 -20.375 34.039062 -19.648438 34.15625 -18.796875 C 34.269531 -17.941406 34.328125 -16.953125 34.328125 -15.828125 L 34.328125 0 L 38.53125 0 L 38.53125 -17.265625 C 38.53125 -18.023438 38.445312 -18.875 38.28125 -19.8125 C 38.125 -20.75 37.769531 -21.617188 37.21875 -22.421875 C 36.675781 -23.234375 35.882812 -23.910156 34.84375 -24.453125 C 33.8125 -25.003906 32.4375 -25.28125 30.71875 -25.28125 C 30.226562 -25.28125 29.648438 -25.226562 28.984375 -25.125 C 28.328125 -25.03125 27.632812 -24.816406 26.90625 -24.484375 C 26.1875 -24.160156 25.488281 -23.679688 24.8125 -23.046875 C 24.132812 -22.421875 23.546875 -21.597656 23.046875 -20.578125 L 22.703125 -20.578125 C 22.503906 -21.109375 22.222656 -21.644531 21.859375 -22.1875 C 21.503906 -22.726562 21.046875 -23.226562 20.484375 -23.6875 C 19.921875 -24.15625 19.25 -24.535156 18.46875 -24.828125 C 17.695312 -25.128906 16.769531 -25.28125 15.6875 -25.28125 C 15.1875 -25.28125 14.585938 -25.222656 13.890625 -25.109375 C 13.203125 -24.992188 12.507812 -24.769531 11.8125 -24.4375 C 11.125 -24.101562 10.472656 -23.640625 9.859375 -23.046875 C 9.253906 -22.453125 8.753906 -21.679688 8.359375 -20.734375 L 8.15625 -20.734375 L 8.15625 -24.734375 L 3.953125 -24.734375 L 3.953125 0 Z M 8.15625 0 "/></g></g></g><g fill="#000000" fill-opacity="1"><g transform="translate(677.914099, 468.207744)"><g><path d="M 25.921875 -11.28125 L 25.921875 -12.3125 C 25.921875 -14.519531 25.609375 -16.429688 24.984375 -18.046875 C 24.359375 -19.671875 23.507812 -21.007812 22.4375 -22.0625 C 21.363281 -23.113281 20.117188 -23.90625 18.703125 -24.4375 C 17.285156 -24.96875 15.785156 -25.234375 14.203125 -25.234375 C 12.515625 -25.234375 10.960938 -24.941406 9.546875 -24.359375 C 8.128906 -23.785156 6.890625 -22.945312 5.828125 -21.84375 C 4.773438 -20.738281 3.953125 -19.398438 3.359375 -17.828125 C 2.765625 -16.265625 2.46875 -14.492188 2.46875 -12.515625 C 2.46875 -10.867188 2.722656 -9.257812 3.234375 -7.6875 C 3.742188 -6.125 4.519531 -4.722656 5.5625 -3.484375 C 6.601562 -2.242188 7.921875 -1.253906 9.515625 -0.515625 C 11.117188 0.222656 13.007812 0.59375 15.1875 0.59375 C 17.300781 0.59375 19.25 0.222656 21.03125 -0.515625 C 22.8125 -1.253906 24.359375 -2.316406 25.671875 -3.703125 L 24.09375 -5.296875 C 23.394531 -4.703125 22.738281 -4.15625 22.125 -3.65625 C 21.519531 -3.164062 20.90625 -2.753906 20.28125 -2.421875 C 19.65625 -2.085938 19.003906 -1.832031 18.328125 -1.65625 C 17.648438 -1.476562 16.898438 -1.390625 16.078125 -1.390625 C 15.148438 -1.390625 14.164062 -1.523438 13.125 -1.796875 C 12.09375 -2.078125 11.128906 -2.582031 10.234375 -3.3125 C 9.347656 -4.039062 8.609375 -5.046875 8.015625 -6.328125 C 7.421875 -7.617188 7.125 -9.269531 7.125 -11.28125 Z M 7.125 -13.25 C 7.125 -14.570312 7.265625 -15.851562 7.546875 -17.09375 C 7.828125 -18.332031 8.253906 -19.425781 8.828125 -20.375 C 9.410156 -21.332031 10.144531 -22.097656 11.03125 -22.671875 C 11.925781 -23.253906 12.984375 -23.546875 14.203125 -23.546875 C 16.535156 -23.546875 18.351562 -22.628906 19.65625 -20.796875 C 20.96875 -18.972656 21.625 -16.457031 21.625 -13.25 Z M 7.125 -13.25 "/></g></g></g><path stroke-linecap="butt" transform="matrix(1.686838, 0, 0, 1.686838, 49.758231, 293.588912)" fill="none" stroke-linejoin="miter" d="M -0.000248333 1.999022 L 160.000063 1.999022 " stroke="#000000" stroke-width="4" stroke-opacity="1" stroke-miterlimit="4"/><path stroke-linecap="butt" transform="matrix(1.686838, 0, 0, 1.686838, 490.347723, 516.364554)" fill="none" stroke-linejoin="miter" d="M -0.0000394711 2.000031 L 160.000272 2.000031 " stroke="#000000" stroke-width="4" stroke-opacity="1" stroke-miterlimit="4"/></svg>